<svg xmlns="http://www.w3.org/2000/svg" width="32.03" height="32.094" viewBox="0 0 32.03 32.094">
    <defs>
        <style>
            .cls-1{fill:#f9d335}.cls-2{fill:#f2c300}.cls-3{fill:#f9e27d}.cls-8{fill:#5f266d}
        </style>
    </defs>
    <g id="Vector_Smart_Object" transform="matrix(-1, 0, 0, -1, 32.03, 0)">
        <path id="Path_33" d="M15.6-6.72a6.232 6.232 0 0 0-6.238-6.227A6.232 6.232 0 0 0 3.129-6.72 6.232 6.232 0 0 0 9.366-.494 6.232 6.232 0 0 0 15.6-6.72z" class="cls-1"/>
        <path id="Path_34" d="M15.6-6.72a6.232 6.232 0 0 0-6.238-6.227 6.284 6.284 0 0 0-.963.074 6.23 6.23 0 0 1 5.279 6.153A6.23 6.23 0 0 1 8.4-.568a6.284 6.284 0 0 0 .963.074A6.232 6.232 0 0 0 15.6-6.72z" class="cls-2"/>
        <path id="Path_35" d="M10.329-12.873a6.289 6.289 0 0 0-.963-.074A6.232 6.232 0 0 0 3.128-6.72 6.232 6.232 0 0 0 9.366-.494a6.289 6.289 0 0 0 .963-.074A6.23 6.23 0 0 1 5.054-6.72a6.23 6.23 0 0 1 5.275-6.153z" class="cls-3"/>
        <path id="Path_36" d="M24.74-12.466a6.232 6.232 0 0 0-6.24-6.226 6.232 6.232 0 0 0-6.238 6.226A6.232 6.232 0 0 0 18.5-6.239a6.232 6.232 0 0 0 6.24-6.227z" class="cls-1"/>
        <path id="Path_37" d="M24.74-12.466a6.232 6.232 0 0 0-6.24-6.226 6.288 6.288 0 0 0-.963.074 6.23 6.23 0 0 1 5.275 6.152 6.231 6.231 0 0 1-5.275 6.152 6.289 6.289 0 0 0 .963.074 6.233 6.233 0 0 0 6.24-6.226z" class="cls-2"/>
        <path id="Path_38" d="M19.465-18.618a6.284 6.284 0 0 0-.963-.074 6.232 6.232 0 0 0-6.238 6.226A6.232 6.232 0 0 0 18.5-6.239a6.284 6.284 0 0 0 .963-.074 6.23 6.23 0 0 1-5.275-6.152 6.23 6.23 0 0 1 5.277-6.153z" class="cls-3"/>
        <path id="Path_39" fill="#ffbb98" d="M25.014-19.78c-.292.026-.586.04-.879.04a9.768 9.768 0 0 1-3.117-.51 9.554 9.554 0 0 1-1.173-.481l-6.126-2.992-10.251 5.552a1.96 1.96 0 0 1-.977.26 1.967 1.967 0 0 1-1.706-.985 1.958 1.958 0 0 1 .726-2.677l10.134-9.267.019-.016a3.63 3.63 0 0 1 3.476-.479l8.191 3.088a5.735 5.735 0 0 0 2.772.22 5.742 5.742 0 0 0 1.538-.485v8.119a9.813 9.813 0 0 1-2.627.613z"/>
        <path id="Path_40" fill="#5fcdff" d="M31.524-19.109v-10.176a.7.7 0 0 0-.7-.7h-2.48a.7.7 0 0 0-.7.7v10.176a.7.7 0 0 0 .7.7h2.477a.7.7 0 0 0 .703-.7z"/>
        <path id="Path_41" fill="#30b6ff" d="M31.524-19.109v-10.176a.7.7 0 0 0-.7-.7h-.552a.7.7 0 0 0-.7.7v10.176a.7.7 0 0 0 .7.7h.552a.7.7 0 0 0 .7-.7z"/>
        <path id="Path_42" fill="#ffcaa6" d="M25.014-19.78c-.292.026-.586.04-.879.04a9.768 9.768 0 0 1-3.117-.51 9.554 9.554 0 0 1-1.173-.481l-6.126-2.992-.971-.475a1.819 1.819 0 0 1-1-1.625 1.8 1.8 0 0 1 .2-.819 1.824 1.824 0 0 1 2.449-.807l7.521 3.673a11.2 11.2 0 0 0 4.852.789l.876-.07v2.664a9.826 9.826 0 0 1-2.632.613z"/>
        <path id="Path_43" d="M30.811-17.885h-2.477a1.22 1.22 0 0 1-1.219-1.215v-.567a10.275 10.275 0 0 1-7.5-.588l-5.895-2.879-10.01 5.415a2.483 2.483 0 0 1-3.619-2.8A2.45 2.45 0 0 1 1.2-21.99c.026-.024 10.117-9.259 10.146-9.28a4.138 4.138 0 0 1 3.972-.547l8.18 3.085a5.17 5.17 0 0 0 3.613-.115v-.427-.017a1.225 1.225 0 0 1 1.219-1.2h2.477a1.22 1.22 0 0 1 1.219 1.217V-19.1a1.22 1.22 0 0 1-1.215 1.215zm-3.7-9.871a6.178 6.178 0 0 1-3.968-.015l-8.191-3.089a3.1 3.1 0 0 0-2.965.39c-.069.064-10.142 9.291-10.227 9.34a1.434 1.434 0 0 0-.681.875 1.454 1.454 0 0 0 2.134 1.637l9.376-5.072a2.333 2.333 0 0 1 .984-4.457c.726 0 .293-.117 8.708 3.984a.512.512 0 0 1 .236.685.514.514 0 0 1-.687.235l-7.679-3.743a1.328 1.328 0 0 0-1.764.581 1.309 1.309 0 0 0 .579 1.756c1.218.6 1.633.8 3.021 1.481l4.075 1.991a9.251 9.251 0 0 0 7.051.431v-7.011zM31-29.275a.2.2 0 0 0-.193-.192h-2.473a.2.2 0 0 0-.193.2V-19.1a.2.2 0 0 0 .193.192h2.477A.2.2 0 0 0 31-19.1z" class="cls-8"/>
        <path id="Path_44" d="M11.777-13.033A6.754 6.754 0 0 1 18.5-19.2a6.753 6.753 0 0 1 6.751 6.739A6.753 6.753 0 0 1 18.5-5.727a6.725 6.725 0 0 1-2.413-.447A6.754 6.754 0 0 1 9.364 0a6.753 6.753 0 0 1-6.752-6.739 6.756 6.756 0 0 1 9.165-6.294zM18.5-6.752a5.726 5.726 0 0 0 5.724-5.714A5.726 5.726 0 0 0 18.5-18.18a5.726 5.726 0 0 0-5.724 5.714A5.726 5.726 0 0 0 18.5-6.752zM9.364-1.025a5.725 5.725 0 0 0 5.722-5.632 6.744 6.744 0 0 1-3.31-5.263 5.729 5.729 0 0 0-8.137 5.181 5.726 5.726 0 0 0 5.725 5.714z" class="cls-8"/>
        <path id="Path_45" d="M17.655-2.357h.821v-.807a.513.513 0 0 1 .513-.512.513.513 0 0 1 .513.512v.807h.808a.513.513 0 0 1 .513.512.513.513 0 0 1-.513.512h-.81v.82a.513.513 0 0 1-.51.513.513.513 0 0 1-.513-.512v-.82h-.821a.513.513 0 0 1-.513-.512.513.513 0 0 1 .512-.513z" class="cls-8"/>
        <path id="Path_46" d="M22.866-5.035h.821v-.807a.513.513 0 0 1 .513-.512.513.513 0 0 1 .513.512v.807h.821a.513.513 0 0 1 .513.512.513.513 0 0 1-.513.512h-.821v.82a.513.513 0 0 1-.513.512.513.513 0 0 1-.513-.512v-.82h-.821a.513.513 0 0 1-.513-.512.513.513 0 0 1 .513-.512z" class="cls-8"/>
        <path id="Path_47" d="M9.03-18.436a.513.513 0 0 1 .513.512v.807h.808a.513.513 0 0 1 .513.512.513.513 0 0 1-.513.512h-.807v.82a.513.513 0 0 1-.513.512.513.513 0 0 1-.513-.512v-.82H7.7a.513.513 0 0 1-.513-.512.513.513 0 0 1 .513-.512h.821v-.807a.513.513 0 0 1 .509-.512z" class="cls-8"/>
    </g>
</svg>
