<svg xmlns="http://www.w3.org/2000/svg" width="24" height="24" viewBox="0 0 24 24">
    <g>
        <path d="M24 4.4h-2v-.8a1.6 1.6 0 0 0-3.2 0v.8h-3.2v-.8a1.6 1.6 0 0 0-3.2 0v.8H9.2v-.8a1.6 1.6 0 0 0-3.2 0v.8H4a2 2 0 0 0-2 2v16a2 2 0 0 0 2 2h11.2a.4.4 0 1 0 0-.8H4a1.2 1.2 0 0 1-1.2-1.2V10h22.4v6.8a.4.4 0 0 0 .8 0V6.4a2 2 0 0 0-2-2zm-4.4-.8a.8.8 0 0 1 1.6 0V6a.8.8 0 0 1-1.6 0zm-6.4 0a.8.8 0 0 1 1.6 0V6a.8.8 0 0 1-1.6 0zm-6.4 0a.8.8 0 1 1 1.6 0V6a.8.8 0 0 1-1.6 0zm18.4 5.6H2.8V6.4A1.2 1.2 0 0 1 4 5.2h2V6a1.6 1.6 0 0 0 3.2 0v-.8h3.2V6a1.6 1.6 0 0 0 3.2 0v-.8h3.2V6A1.6 1.6 0 0 0 22 6v-.8h2a1.2 1.2 0 0 1 1.2 1.2z" transform="translate(-2 -2) translate(0)"/>
        <path d="M25.2 27.8a.8.8 0 0 0-.8-.8h-1.6a.8.8 0 0 0-.8.8V29a.8.8 0 0 0 .8.8h1.6a.8.8 0 0 0 .8-.8zM22.8 29v-1.2h1.6V29z" transform="translate(-2 -2) translate(-12 -15)"/>
        <path d="M13.2 27.8a.8.8 0 0 0-.8-.8h-1.6a.8.8 0 0 0-.8.8V29a.8.8 0 0 0 .8.8h1.6a.8.8 0 0 0 .8-.8zM10.8 29v-1.2h1.6V29z" transform="translate(-2 -2) translate(-4.8 -15)"/>
        <path d="M48.4 29.8a.8.8 0 0 0 .8-.8v-1.2a.8.8 0 0 0-.8-.8h-1.6a.8.8 0 0 0-.8.8V29a.8.8 0 0 0 .8.8zm-1.6-2h1.6V29h-1.6z" transform="translate(-2 -2) translate(-26.4 -15)"/>
        <path d="M25.2 36.8a.8.8 0 0 0-.8-.8h-1.6a.8.8 0 0 0-.8.8V38a.8.8 0 0 0 .8.8h1.6a.8.8 0 0 0 .8-.8zM22.8 38v-1.2h1.6V38z" transform="translate(-2 -2) translate(-12 -20.4)"/>
        <path d="M13.2 36.8a.8.8 0 0 0-.8-.8h-1.6a.8.8 0 0 0-.8.8V38a.8.8 0 0 0 .8.8h1.6a.8.8 0 0 0 .8-.8zM10.8 38v-1.2h1.6V38z" transform="translate(-2 -2) translate(-4.8 -20.4)"/>
        <path d="M24.4 45h-1.6a.8.8 0 0 0-.8.8V47a.8.8 0 0 0 .8.8h1.6a.8.8 0 0 0 .8-.8v-1.2a.8.8 0 0 0-.8-.8zm-1.6 2v-1.2h1.6V47z" transform="translate(-2 -2) translate(-12 -25.8)"/>
        <path d="M34.8 29.8h1.6a.8.8 0 0 0 .8-.8v-1.2a.8.8 0 0 0-.8-.8h-1.6a.8.8 0 0 0-.8.8V29a.8.8 0 0 0 .8.8zm0-2h1.6V29h-1.6z" transform="translate(-2 -2) translate(-19.2 -15)"/>
        <path d="M34 38a.8.8 0 0 0 .8.8.4.4 0 0 0 0-.8v-1.2h1.6a.4.4 0 0 0 0-.8h-1.6a.8.8 0 0 0-.8.8z" transform="translate(-2 -2) translate(-19.2 -20.4)"/>
        <path d="M12.4 45h-1.6a.8.8 0 0 0-.8.8V47a.8.8 0 0 0 .8.8h1.6a.8.8 0 0 0 .8-.8v-1.2a.8.8 0 0 0-.8-.8zm-1.6 2v-1.2h1.6V47z" transform="translate(-2 -2) translate(-4.8 -25.8)"/>
        <path d="M41.2 36a5.2 5.2 0 1 0 5.2 5.2 5.2 5.2 0 0 0-5.2-5.2zm0 9.6a4.4 4.4 0 1 1 4.4-4.4 4.4 4.4 0 0 1-4.4 4.4z" transform="translate(-2 -2) translate(-20.4 -20.4)"/>
        <path d="M46.966 44.632l-3.111 3.111-1.414-1.414a.4.4 0 1 0-.566.566l1.7 1.7a.4.4 0 0 0 .566 0l3.391-3.395a.4.4 0 1 0-.566-.566z" transform="translate(-2 -2) translate(-23.855 -25.509)"/>
    </g>
</svg>
