<svg xmlns="http://www.w3.org/2000/svg" width="15.539" height="29.774" viewBox="0 0 15.539 29.774">
    <g>
        <path fill="#f44336" d="M118.439.315a.647.647 0 0 0-.915.915L131.3 15.009l-13.777 13.778a.647.647 0 1 0 .9.931l.016-.016 14.236-14.236a.647.647 0 0 0 0-.915z" transform="translate(-117.325 0) translate(0 -0.126)"/>
        <path d="M118.1 29.766a.647.647 0 0 1-.458-1.105l13.779-13.778-13.784-13.777a.648.648 0 0 1 .916-.916l14.236 14.236a.647.647 0 0 1 0 .915l-14.236 14.235a.647.647 0 0 1-.453.19z" transform="translate(-117.325 0) translate(-0.115 0)"/>
    </g>
</svg>
