<svg xmlns="http://www.w3.org/2000/svg" width="15.539" height="29.774" viewBox="0 0 15.539 29.774">
    <path fill="#f44336" d="M131.749.315a.647.647 0 0 1 .915.915l-13.778 13.779 13.779 13.778a.647.647 0 1 1-.9.931l-.016-.016-14.235-14.236a.647.647 0 0 1 0-.915z" transform="translate(-117.324 -0.126)"/>
    <path d="M132.33 29.766a.647.647 0 0 0 .458-1.105L119.01 14.883l13.779-13.777a.648.648 0 1 0-.916-.916l-14.237 14.235a.647.647 0 0 0 0 .915l14.236 14.236a.647.647 0 0 0 .458.19z" transform="translate(-117.447 0)"/>
</svg>
