<svg xmlns="http://www.w3.org/2000/svg" width="16.5" height="16.5" viewBox="0 0 16.5 16.5">
    <g>
        <path d="M14.171 18.5a.728.728 0 0 1-.52-.219l-1.1-1.1a.2.2 0 0 1-.024-.021l-1.497-1.497a.214.214 0 0 1-.025-.021L9.565 14.2 2.218 6.851A.727.727 0 0 1 2 6.332a.736.736 0 0 1 .218-.532L5.8 2.218A.737.737 0 0 1 6.329 2a.729.729 0 0 1 .519.219l11.43 11.43a.727.727 0 0 1 .219.519.736.736 0 0 1-.218.528L14.7 18.282a.737.737 0 0 1-.524.218zm-1.339-1.7l.024.021 1.127 1.127a.263.263 0 0 0 .189.08.269.269 0 0 0 .191-.08l3.586-3.587a.267.267 0 0 0 .08-.192.259.259 0 0 0-.078-.186L6.518 2.551a.261.261 0 0 0-.186-.08.269.269 0 0 0-.191.08l-3.59 3.587a.267.267 0 0 0-.08.192.259.259 0 0 0 .078.186l8.767 8.771.025.021z" transform="translate(-2 -2) translate(0 0)"/>
        <path d="M14.465 31.159a.236.236 0 0 1-.167-.4l.554-.554a.236.236 0 1 1 .333.333l-.554.554a.236.236 0 0 1-.166.067z" transform="translate(-2 -2) translate(-9.347 -21.502)"/>
        <path d="M20.954 36.566a.236.236 0 0 1-.167-.4l.887-.888a.236.236 0 0 1 .333.334l-.887.887a.236.236 0 0 1-.167.069z" transform="translate(-2 -2) translate(-14.306 -25.38)"/>
        <path d="M27.442 44.133a.236.236 0 0 1-.167-.4l.554-.555a.236.236 0 1 1 .333.333l-.554.554a.236.236 0 0 1-.166.068z" transform="translate(-2 -2) translate(-19.265 -31.418)"/>
        <path d="M33.93 49.543a.236.236 0 0 1-.167-.4l.888-.887a.236.236 0 1 1 .333.333l-.888.887a.234.234 0 0 1-.166.067z" transform="translate(-2 -2) translate(-24.223 -35.298)"/>
        <path d="M40.42 57.113a.236.236 0 0 1-.167-.4l.554-.554a.236.236 0 1 1 .333.333l-.554.554a.236.236 0 0 1-.166.067z" transform="translate(-2 -2) translate(-29.184 -41.338)"/>
        <path d="M46.908 62.52a.236.236 0 0 1-.167-.4l.887-.887a.236.236 0 1 1 .334.333l-.887.887a.234.234 0 0 1-.167.067z" transform="translate(-2 -2) translate(-34.142 -45.216)"/>
        <path d="M14.241 15.267a1.037 1.037 0 1 1 1-.768 1.037 1.037 0 0 1-1 .768zm-.4-1.436a.566.566 0 1 0 .8 0 .566.566 0 0 0-.8 0z" transform="translate(-2 -2) translate(-8.564 -8.555)"/>
    </g>
</svg>
